<?xml version="1.0" encoding="UTF-8" standalone="no"?>
<svg
   version="1.1"
   viewBox="0 0 24 18"
   xml:space="preserve"
   id="svg5"
   sodipodi:docname="email_icon.svg"
   width="24"
   height="18"
   inkscape:version="1.2.1 (9c6d41e410, 2022-07-14)"
   xmlns:inkscape="http://www.inkscape.org/namespaces/inkscape"
   xmlns:sodipodi="http://sodipodi.sourceforge.net/DTD/sodipodi-0.dtd"
   xmlns="http://www.w3.org/2000/svg"
   xmlns:svg="http://www.w3.org/2000/svg"><defs
     id="defs9" /><sodipodi:namedview
     id="namedview7"
     pagecolor="#ffffff"
     bordercolor="#000000"
     borderopacity="0.25"
     inkscape:showpageshadow="2"
     inkscape:pageopacity="0.0"
     inkscape:pagecheckerboard="0"
     inkscape:deskcolor="#d1d1d1"
     showgrid="false"
     inkscape:zoom="30.258278"
     inkscape:cx="10.344277"
     inkscape:cy="6.8245788"
     inkscape:window-width="1769"
     inkscape:window-height="1368"
     inkscape:window-x="-7"
     inkscape:window-y="0"
     inkscape:window-maximized="0"
     inkscape:current-layer="svg5" /><g
     id="info"
     transform="translate(0,-3)" /><g
     id="icons"
     transform="translate(0,-3)"><path
       d="M 20,3 H 4 C 1.8,3 0,4.8 0,7 v 10 c 0,2.2 1.8,4 4,4 h 16 c 2.2,0 4,-1.8 4,-4 V 7 C 24,4.8 22.2,3 20,3 Z m 1.6,5.8 -7.9,5.3 c -0.5,0.3 -1.1,0.5 -1.7,0.5 -0.6,0 -1.2,-0.2 -1.7,-0.5 L 2.4,8.8 C 2,8.5 1.9,7.9 2.2,7.4 2.5,7 3.1,6.9 3.6,7.2 l 7.9,5.3 c 0.3,0.2 0.8,0.2 1.1,0 L 20.5,7.2 C 21,6.9 21.6,7 21.9,7.5 c 0.2,0.4 0.1,1 -0.3,1.3 z"
       id="email" /></g></svg>
