<?xml version="1.0" encoding="UTF-8" standalone="no"?>
<svg
   enable-background="new 0 0 56.693 56.693"
   height="55.839012"
   id="Layer_1"
   version="1.1"
   viewBox="0 0 51.946353 55.839011"
   width="51.946354"
   xml:space="preserve"
   sodipodi:docname="line_icon.svg"
   inkscape:version="1.2.1 (9c6d41e410, 2022-07-14)"
   xmlns:inkscape="http://www.inkscape.org/namespaces/inkscape"
   xmlns:sodipodi="http://sodipodi.sourceforge.net/DTD/sodipodi-0.dtd"
   xmlns="http://www.w3.org/2000/svg"
   xmlns:svg="http://www.w3.org/2000/svg"><defs
     id="defs7" /><sodipodi:namedview
     id="namedview5"
     pagecolor="#ffffff"
     bordercolor="#000000"
     borderopacity="0.25"
     inkscape:showpageshadow="2"
     inkscape:pageopacity="0.0"
     inkscape:pagecheckerboard="0"
     inkscape:deskcolor="#d1d1d1"
     showgrid="false"
     inkscape:lockguides="true"
     inkscape:zoom="9.5822488"
     inkscape:cx="0.573978"
     inkscape:cy="31.51661"
     inkscape:window-width="2560"
     inkscape:window-height="1377"
     inkscape:window-x="-8"
     inkscape:window-y="-8"
     inkscape:window-maximized="1"
     inkscape:current-layer="Layer_1" /><path
     id="path8658"
     style="display:inline;fill:#000000;fill-opacity:0.990298;fill-rule:evenodd;stroke:none;stroke-width:0.124342;stroke-dasharray:none;stroke-opacity:1"
     d="M 49.476749,0.00240767 C 41.333761,-0.13729745 37.115147,5.8287886 39.620132,11.119378 c 1.854747,3.708733 3.322689,3.96728 1.814048,5.500316 -2.86796,2.914341 -9.638302,3.97681 -14.661044,4.532966 -7.664868,0.848712 -11.017301,7.487571 -7.096764,11.325953 6.90707,7.016439 1.870926,12.257861 -4.733331,12.097247 -3.35805,-0.08167 -8.3430518,0.442029 -12.1661898,3.292003 -3.8231364,2.849977 -2.9352801,5.846868 -1.8075851,6.88132 0.7897575,0.724456 0.7452281,1.471132 1.0707627,0.870398 C 2.179325,55.362527 2.8301961,55.005491 2.9147362,54.053294 3.196846,50.875828 5.0686834,50.0341 9.1992718,48.212576 13.329858,46.391053 21.332364,47.480521 25.234858,42.850145 29.137351,38.219767 22.009191,31.55553 20.934571,29.718761 c -0.555576,-0.949609 -0.220643,-3.591504 2.514246,-4.77642 2.697948,-1.168912 7.293862,-1.242542 12.530292,-2.15876 9.201839,-1.610048 11.026109,-6.128122 8.413133,-9.744585 -1.054723,-1.459782 -3.049065,-4.333447 -2.305263,-6.4461202 1.255626,-3.5664318 8.085645,-4.4280809 8.999145,-4.3950817 0.727193,0.02627 0.892681,-0.2947096 0.855318,-1.0233646 -0.02,-0.39001951 0.05426,-0.80192813 -0.784219,-1.06214477 C 50.580299,0.04667133 50.019615,0.0117214 49.476749,0.00240767 Z" /></svg>
