<?xml version="1.0" encoding="UTF-8" standalone="no"?>
<svg
   height="1766.1217"
   viewBox="0 0 1766.1217 1766.1217"
   width="1766.1217"
   version="1.1"
   id="svg992"
   sodipodi:docname="magic_icon.svg"
   inkscape:version="1.2.1 (9c6d41e410, 2022-07-14)"
   xmlns:inkscape="http://www.inkscape.org/namespaces/inkscape"
   xmlns:sodipodi="http://sodipodi.sourceforge.net/DTD/sodipodi-0.dtd"
   xmlns="http://www.w3.org/2000/svg"
   xmlns:svg="http://www.w3.org/2000/svg">
  <defs
     id="defs996" />
  <sodipodi:namedview
     id="namedview994"
     pagecolor="#ffffff"
     bordercolor="#000000"
     borderopacity="0.25"
     inkscape:showpageshadow="2"
     inkscape:pageopacity="0.0"
     inkscape:pagecheckerboard="0"
     inkscape:deskcolor="#d1d1d1"
     showgrid="false"
     inkscape:zoom="0.57310268"
     inkscape:cx="606.34859"
     inkscape:cy="875.93379"
     inkscape:window-width="2560"
     inkscape:window-height="1377"
     inkscape:window-x="-8"
     inkscape:window-y="-8"
     inkscape:window-maximized="1"
     inkscape:current-layer="svg992" />
  <path
     d="M 1254.734,626.82756 1570.845,310.71659 1455.4051,195.27675 1139.2942,511.38772 Z m 482.258,-316.11097 q 0,29.12968 -19.4198,48.54947 L 330.13636,1746.7019 q -19.41978,19.4198 -48.54946,19.4198 -29.12968,0 -48.54946,-19.4198 L 19.419787,1533.0843 Q 0,1513.6645 0,1484.5348 0,1455.4051 19.419787,1435.9853 L 1406.8557,48.549466 q 19.4197,-19.419786 48.5494,-19.419786 29.1297,0 48.5495,19.419786 l 213.6176,213.617654 q 19.4198,19.41979 19.4198,48.54947 z M 279.42914,105.72995 385.1591,138.09626 279.42914,170.46258 247.06283,276.19253 214.69652,170.46258 108.96658,138.09626 214.69652,105.72995 247.06283,0 Z m 377.60697,174.77808 211.45991,64.73263 -211.45991,64.73262 -64.73262,211.4599 -64.73262,-211.4599 -211.4599,-64.73262 211.4599,-64.73263 64.73262,-211.4599 z m 1003.35569,515.70323 105.7299,32.36631 -105.7299,32.36631 -32.3663,105.72997 -32.3664,-105.72997 -105.7299,-32.36631 105.7299,-32.36631 32.3664,-105.72995 z M 969.91045,105.72995 1075.6404,138.09626 969.91045,170.46258 937.54414,276.19253 905.17783,170.46258 799.44788,138.09626 905.17783,105.72995 937.54414,0 Z"
     id="path990"
     style="stroke-width:1.07888" />
</svg>
