<?xml version="1.0" encoding="UTF-8" standalone="no"?>
<svg
   height="22.621782"
   id="Layer_1"
   version="1.1"
   viewBox="0 0 31.670496 22.621782"
   width="31.670496"
   xml:space="preserve"
   sodipodi:docname="nav-icon.svg"
   inkscape:version="1.2.1 (9c6d41e410, 2022-07-14)"
   xmlns:inkscape="http://www.inkscape.org/namespaces/inkscape"
   xmlns:sodipodi="http://sodipodi.sourceforge.net/DTD/sodipodi-0.dtd"
   xmlns="http://www.w3.org/2000/svg"
   xmlns:svg="http://www.w3.org/2000/svg"><defs
     id="defs1120" /><sodipodi:namedview
     id="namedview1118"
     pagecolor="#ffffff"
     bordercolor="#000000"
     borderopacity="0.25"
     inkscape:showpageshadow="2"
     inkscape:pageopacity="0.0"
     inkscape:pagecheckerboard="0"
     inkscape:deskcolor="#d1d1d1"
     showgrid="false"
     inkscape:zoom="32.09375"
     inkscape:cx="10.952288"
     inkscape:cy="11.279455"
     inkscape:window-width="2560"
     inkscape:window-height="1377"
     inkscape:window-x="-8"
     inkscape:window-y="-8"
     inkscape:window-maximized="1"
     inkscape:current-layer="Layer_1" /><path
     d="M 2.2621783,4.5243567 H 29.408317 c 1.248724,0 2.262179,-1.013456 2.262179,-2.2621784 C 31.670496,1.0134559 30.657041,0 29.408317,0 H 2.2621783 C 1.0134559,0 0,1.0134559 0,2.2621783 0,3.5109007 1.0134559,4.5243567 2.2621783,4.5243567 Z M 29.408317,9.048713 H 2.2621783 C 1.0134559,9.048713 0,10.06217 0,11.310892 0,12.559614 1.0134559,13.57307 2.2621783,13.57307 H 29.408317 c 1.248724,0 2.262179,-1.013456 2.262179,-2.262178 0,-1.248722 -1.013455,-2.262179 -2.262179,-2.262179 z m 0,9.048714 H 2.2621783 C 1.0134559,18.097427 0,19.110882 0,20.359605 c 0,1.248723 1.0134559,2.262178 2.2621783,2.262178 H 29.408317 c 1.248724,0 2.262179,-1.013455 2.262179,-2.262178 0,-1.248723 -1.013455,-2.262178 -2.262179,-2.262178 z"
     id="path1115"
     style="stroke-width:1.13109" /></svg>
