<?xml version="1.0" encoding="UTF-8" standalone="no"?>
<svg
   enable-background="new 0 0 56.693 56.693"
   height="46.77359"
   id="Layer_1"
   version="1.1"
   viewBox="0 0 56.330444 46.773589"
   width="56.330444"
   xml:space="preserve"
   sodipodi:docname="palette_icon.svg"
   inkscape:version="1.2.1 (9c6d41e410, 2022-07-14)"
   xmlns:inkscape="http://www.inkscape.org/namespaces/inkscape"
   xmlns:sodipodi="http://sodipodi.sourceforge.net/DTD/sodipodi-0.dtd"
   xmlns="http://www.w3.org/2000/svg"
   xmlns:svg="http://www.w3.org/2000/svg"><defs
     id="defs7" /><sodipodi:namedview
     id="namedview5"
     pagecolor="#ffffff"
     bordercolor="#000000"
     borderopacity="0.25"
     inkscape:showpageshadow="2"
     inkscape:pageopacity="0.0"
     inkscape:pagecheckerboard="0"
     inkscape:deskcolor="#d1d1d1"
     showgrid="false"
     inkscape:lockguides="true"
     inkscape:zoom="14.558458"
     inkscape:cx="4.63648"
     inkscape:cy="22.392481"
     inkscape:window-width="2560"
     inkscape:window-height="1377"
     inkscape:window-x="-8"
     inkscape:window-y="-8"
     inkscape:window-maximized="1"
     inkscape:current-layer="Layer_1" /><path
     id="path6561"
     style="fill:#000000;fill-opacity:0.990298;fill-rule:evenodd;stroke:none;stroke-width:2.79589;stroke-dasharray:none;stroke-opacity:1"
     d="M 34.912283,1.8508144e-4 C 34.347065,0.00874508 33.624617,0.30932268 33.786085,1.8432605 l -0.25102,43.4445635 c 0,0 -0.129625,1.42118 1.291283,1.485768 h 0.01135 l 19.749173,-0.110807 c 0,0 1.615667,10e-7 1.680252,-1.614669 l 0.06332,-43.532761 c 0,0 5.46e-4,-1.67853332 -1.872474,-1.42018622 h -18.92379 c 0,0 -0.282766,-0.100097 -0.621896,-0.0949789986 z M 23.971426,0.67409438 c -0.356475,0.0081 -0.808749,0.1510207 -1.345558,0.58345302 L 6.9246751,10.400557 c 0,0 -1.3349327,0.554183 -0.3098169,2.363208 L 25.488853,46.070283 c 0,0 0.317732,0.35844 1.03348,0.597021 l 6.24384,0.0407 0.07916,-31.01568 -7.953494,-14.6744974 c 0,0 -0.32628,-0.35733022 -0.920407,-0.34373812 z M 1.0200507,24.217968 c -0.31083631,0.0049 -0.93339021,0.241757 -0.94075997,2.051128 L 1.395332e-4,45.792127 c 0,0 -0.0399577032,0.715745 1.2324857668,0.954327 l 22.7840277,-0.03844 c 0,0 -12.046891,-22.148564 -12.245709,-22.148564 -0.198819,0 -10.576763,-0.318864 -10.576763,-0.318864 0,0 -0.070513,-0.02426 -0.1741315,-0.02262 z M 39.962082,37.840896 a 2.9822813,2.9822813 0 0 1 2.982843,2.980581 2.9822813,2.9822813 0 0 1 -2.982843,2.982842 2.9822813,2.9822813 0 0 1 -2.980579,-2.982842 2.9822813,2.9822813 0 0 1 2.980579,-2.980581 z" /></svg>
