<?xml version="1.0" encoding="UTF-8" standalone="no"?>
<svg
   data-name="Layer 1"
   id="Layer_1"
   viewBox="0 0 512 512"
   version="1.1"
   sodipodi:docname="telegram_icon.svg"
   width="512"
   height="512"
   inkscape:version="1.2.1 (9c6d41e410, 2022-07-14)"
   xmlns:inkscape="http://www.inkscape.org/namespaces/inkscape"
   xmlns:sodipodi="http://sodipodi.sourceforge.net/DTD/sodipodi-0.dtd"
   xmlns="http://www.w3.org/2000/svg"
   xmlns:svg="http://www.w3.org/2000/svg">
  <defs
     id="defs1490" />
  <sodipodi:namedview
     id="namedview1488"
     pagecolor="#ffffff"
     bordercolor="#000000"
     borderopacity="0.25"
     inkscape:showpageshadow="2"
     inkscape:pageopacity="0.0"
     inkscape:pagecheckerboard="0"
     inkscape:deskcolor="#d1d1d1"
     showgrid="false"
     inkscape:zoom="2.0058594"
     inkscape:cx="177.72931"
     inkscape:cy="255.75073"
     inkscape:window-width="2560"
     inkscape:window-height="1377"
     inkscape:window-x="-8"
     inkscape:window-y="-8"
     inkscape:window-maximized="1"
     inkscape:current-layer="Layer_1" />
  <title
     id="title1483" />
  <path
     d="M 256,0 C 114.615,0 0,114.615 0,256 0,397.385 114.615,512 256,512 397.385,512 512,397.385 512,256 512,114.615 397.385,0 256,0 Z M 389.059,161.936 343.591,379 a 16.007,16.007 0 0 1 -25.177,9.593 l -66.136,-48.861 -40.068,37.8 a 5.429,5.429 0 0 1 -7.74,-0.294 l -0.861,-0.946 6.962,-67.375 125.484,-114.651 a 3.358,3.358 0 0 0 -4.061,-5.317 L 171.515,290.519 102.4,267.307 a 9.393,9.393 0 0 1 -0.32,-17.694 L 372.5,147.744 a 12.441,12.441 0 0 1 16.559,14.192 z"
     id="path1485" />
</svg>
