<?xml version="1.0" encoding="UTF-8" standalone="no"?>
<svg
   enable-background="new 0 0 56.693 56.693"
   height="45.507019"
   id="Layer_1"
   version="1.1"
   viewBox="0 0 55.997718 45.507018"
   width="55.997719"
   xml:space="preserve"
   sodipodi:docname="twitter_icon.svg"
   inkscape:version="1.2.1 (9c6d41e410, 2022-07-14)"
   xmlns:inkscape="http://www.inkscape.org/namespaces/inkscape"
   xmlns:sodipodi="http://sodipodi.sourceforge.net/DTD/sodipodi-0.dtd"
   xmlns="http://www.w3.org/2000/svg"
   xmlns:svg="http://www.w3.org/2000/svg"><defs
     id="defs1614" /><sodipodi:namedview
     id="namedview1612"
     pagecolor="#ffffff"
     bordercolor="#000000"
     borderopacity="0.25"
     inkscape:showpageshadow="2"
     inkscape:pageopacity="0.0"
     inkscape:pagecheckerboard="0"
     inkscape:deskcolor="#d1d1d1"
     showgrid="false"
     inkscape:zoom="18.115111"
     inkscape:cx="19.072475"
     inkscape:cy="21.14257"
     inkscape:window-width="2560"
     inkscape:window-height="1377"
     inkscape:window-x="-8"
     inkscape:window-y="-8"
     inkscape:window-maximized="1"
     inkscape:current-layer="Layer_1" /><path
     d="M 55.997712,5.386866 C 53.939131,6.301917 51.723685,6.919149 49.399114,7.195369 51.772563,5.774483 53.592434,3.523798 54.45065,0.8388914 52.230657,2.1563375 49.773092,3.11231 47.15525,3.628376 45.060295,1.3958789 42.07416,0 38.769746,0 32.425772,0 27.282162,5.143609 27.282162,11.488721 c 0,0.899136 0.101166,1.775539 0.297818,2.617841 C 18.031622,13.62687 9.5654124,9.053889 3.8989161,2.1029122 2.909979,3.798883 2.3438978,5.77221 2.3438978,7.879669 c 0,3.985303 2.0278894,7.502281 5.1106447,9.561997 -1.8823904,-0.06025 -3.6545201,-0.577448 -5.2038548,-1.437936 -0.00114,0.04774 -0.00114,0.09662 -0.00114,0.145499 0,5.565328 3.960295,10.207649 9.2164393,11.264789 -0.96393,0.261442 -1.9790126,0.402395 -3.0270573,0.402395 -0.7411354,0 -1.4606723,-0.07161 -2.1620212,-0.206881 1.4629442,4.563887 5.7051435,7.886488 10.7316715,7.978562 -3.931877,3.081618 -8.8845194,4.918541 -14.267974,4.918541 -0.926418,0 -1.84146898,-0.05456 -2.740606,-0.161413 5.0856401,3.261218 11.123839,5.161797 17.611039,5.161797 21.132562,0 32.687211,-17.505323 32.687211,-32.687212 0,-0.497878 -0.01024,-0.994621 -0.03182,-1.487952 2.243864,-1.616401 4.192185,-3.64088 5.731289,-5.944989 z"
     id="path1609"
     style="stroke-width:1.13671" /></svg>
