<?xml version="1.0" encoding="UTF-8" standalone="no"?>
<svg
   data-name="Layer 1"
   id="Layer_1"
   viewBox="0 0 512 512"
   version="1.1"
   sodipodi:docname="whatsapp_icon.svg"
   width="512"
   height="512"
   inkscape:version="1.2.1 (9c6d41e410, 2022-07-14)"
   xmlns:inkscape="http://www.inkscape.org/namespaces/inkscape"
   xmlns:sodipodi="http://sodipodi.sourceforge.net/DTD/sodipodi-0.dtd"
   xmlns="http://www.w3.org/2000/svg"
   xmlns:svg="http://www.w3.org/2000/svg">
  <defs
     id="defs1742" />
  <sodipodi:namedview
     id="namedview1740"
     pagecolor="#ffffff"
     bordercolor="#000000"
     borderopacity="0.25"
     inkscape:showpageshadow="2"
     inkscape:pageopacity="0.0"
     inkscape:pagecheckerboard="0"
     inkscape:deskcolor="#d1d1d1"
     showgrid="false"
     inkscape:zoom="2.0058594"
     inkscape:cx="177.72931"
     inkscape:cy="255.75073"
     inkscape:window-width="2560"
     inkscape:window-height="1377"
     inkscape:window-x="-8"
     inkscape:window-y="-8"
     inkscape:window-maximized="1"
     inkscape:current-layer="Layer_1" />
  <title
     id="title1733" />
  <path
     d="m 263,127.88 a 120.44,120.44 0 0 0 -99.7,188 l -11.769,45.405 47.321,-11.041 A 120.432,120.432 0 1 0 263,127.88 Z m 59.22,186.186 c -16.845,7.9 -52.014,3.778 -89.065,-27.93 -37.051,-31.708 -46.555,-65.82 -41.355,-83.682 5.2,-17.862 25.63,-21.162 29.484,-20.309 3.854,0.853 23.126,31.406 20.5,34.97 -2.626,3.564 -15.311,16.25 -15.311,16.25 0,0 -0.534,12.98 23.284,33.364 23.818,20.384 36.56,17.851 36.56,17.851 0,0 10.574,-14.5 13.689,-17.639 3.115,-3.139 36.28,11.181 37.718,14.857 1.438,3.676 1.335,24.371 -15.509,32.268 z"
     id="path1735" />
  <path
     d="M 256,0 C 114.615,0 0,114.615 0,256 0,397.385 114.615,512 256,512 397.385,512 512,397.385 512,256 512,114.615 397.385,0 256,0 Z m 7,393.951 A 144.986,144.986 0 0 1 194.14,376.669 L 116.7,396 136.315,320.2 A 145.656,145.656 0 1 1 263,393.951 Z"
     id="path1737" />
</svg>
